<svg width="157" height="158" viewBox="0 0 157 158" fill="none" xmlns="http://www.w3.org/2000/svg">
<path d="M117.531 46.4479C117.531 42.9946 116.159 39.6827 113.717 37.2408C111.275 34.7989 107.963 33.4271 104.51 33.4271H26.3851C22.9318 33.4271 19.6199 34.7989 17.178 37.2408C14.7361 39.6827 13.3643 42.9946 13.3643 46.4479V111.552C13.3643 115.005 14.7361 118.317 17.178 120.759C19.6199 123.201 22.9318 124.573 26.3851 124.573H104.51C107.963 124.573 111.275 123.201 113.717 120.759C116.159 118.317 117.531 115.005 117.531 111.552V89.8528L143.573 111.552V46.4479L117.531 68.1471V46.4479ZM91.4893 85.5104H71.958V105.042H58.9372V85.5104H39.4059V72.4896H58.9372V52.9583H71.958V72.4896H91.4893V85.5104Z" fill="#414141"/>
</svg>
