<svg width="40" height="40" viewBox="0 0 40 40" fill="none" xmlns="http://www.w3.org/2000/svg">
<circle cx="20" cy="20" r="20" fill="#FC706F"/>
<path d="M13.344 30V28.292L20.456 22.02C21.9867 20.676 23.0507 19.556 23.648 18.66C24.2453 17.764 24.544 16.8307 24.544 15.86C24.544 14.74 24.1613 13.8347 23.396 13.144C22.6307 12.4533 21.6973 12.108 20.596 12.108C19.532 12.108 18.5893 12.3787 17.768 12.92C16.9653 13.4613 16.1533 14.3107 15.332 15.468L13.708 14.292C14.66 12.8733 15.668 11.828 16.732 11.156C17.796 10.4653 19.14 10.12 20.764 10.12C22.5187 10.12 23.9653 10.652 25.104 11.716C26.2613 12.7613 26.84 14.096 26.84 15.72C26.84 17.064 26.476 18.2587 25.748 19.304C25.02 20.3493 23.732 21.6933 21.884 23.336L16.648 27.984H27.036V30H13.344Z" fill="white"/>
</svg>
