<svg width="93" height="93" viewBox="0 0 93 93" fill="none" xmlns="http://www.w3.org/2000/svg">
<path d="M10.9018 59.9334L5.99344 81.1167C5.82411 81.8911 5.82992 82.6935 6.01042 83.4653C6.19093 84.2372 6.54158 84.9589 7.03675 85.5779C7.53192 86.1969 8.15911 86.6974 8.8725 87.0429C9.58589 87.3884 10.3675 87.5703 11.1601 87.575C11.5294 87.6123 11.9016 87.6123 12.2709 87.575L33.5834 82.6667L74.5034 41.9017L51.6668 19.1167L10.9018 59.9334Z" fill="white"/>
<path d="M87.3684 21.4933L72.1268 6.25163C71.1247 5.25463 69.7687 4.69495 68.3551 4.69495C66.9416 4.69495 65.5855 5.25463 64.5834 6.25163L56.1101 14.725L78.9209 37.5358L87.3943 29.0625C87.8902 28.5641 88.2829 27.9728 88.55 27.3225C88.8171 26.6722 88.9534 25.9756 88.951 25.2725C88.9486 24.5695 88.8075 23.8738 88.536 23.2253C88.2645 22.5769 87.8677 21.9883 87.3684 21.4933Z" fill="white"/>
</svg>
