<svg width="19" height="17" viewBox="0 0 19 17" fill="none" xmlns="http://www.w3.org/2000/svg">
<path d="M9.49996 1.41663C7.31733 1.41663 5.54163 3.00542 5.54163 4.95829V7.08329H4.74996C3.87675 7.08329 3.16663 7.71867 3.16663 8.49996V14.1666C3.16663 14.9479 3.87675 15.5833 4.74996 15.5833H14.25C15.1232 15.5833 15.8333 14.9479 15.8333 14.1666V8.49996C15.8333 7.71867 15.1232 7.08329 14.25 7.08329H13.4583V4.95829C13.4583 3.00542 11.6826 1.41663 9.49996 1.41663ZM14.25 8.49996L14.2515 14.1666H4.74996V8.49996H14.25ZM7.12496 7.08329V4.95829C7.12496 3.78671 8.19054 2.83329 9.49996 2.83329C10.8094 2.83329 11.875 3.78671 11.875 4.95829V7.08329H7.12496Z" fill="#1B1A1A"/>
</svg>
