<svg width="152" height="49" viewBox="0 0 152 49" fill="none" xmlns="http://www.w3.org/2000/svg">
<path fill-rule="evenodd" clip-rule="evenodd" d="M41.49 19.92C52.412 12.382 44.28 6.613 41 9.986C37.719 6.613 29.587 12.382 40.51 19.92L40.276 20.388C40.2613 20.4174 40.2525 20.4494 40.2502 20.4822C40.2479 20.5151 40.252 20.548 40.2624 20.5792C40.2834 20.6422 40.3286 20.6943 40.388 20.724C40.4474 20.7537 40.5162 20.7586 40.5792 20.7376C40.6422 20.7166 40.6943 20.6714 40.724 20.612L40.764 20.532C40.773 20.702 40.788 20.847 40.815 20.982C40.883 21.326 41.023 21.604 41.263 22.084L41.276 22.112C41.488 22.534 41.458 22.962 41.326 23.358C41.191 23.76 40.96 24.109 40.792 24.361C40.7551 24.4162 40.7417 24.4837 40.7546 24.5488C40.7676 24.6139 40.8058 24.6711 40.861 24.708C40.9162 24.7449 40.9837 24.7583 41.0488 24.7454C41.1139 24.7324 41.1711 24.6942 41.208 24.639L41.212 24.632C41.378 24.384 41.643 23.986 41.8 23.517C41.96 23.038 42.012 22.466 41.724 21.888C41.466 21.373 41.359 21.156 41.305 20.884C41.2868 20.7885 41.2744 20.692 41.268 20.595L41.276 20.612C41.3057 20.6714 41.3578 20.7166 41.4208 20.7376C41.4838 20.7586 41.5526 20.7537 41.612 20.724C41.6714 20.6943 41.7166 20.6422 41.7376 20.5792C41.7586 20.5162 41.7537 20.4474 41.724 20.388L41.489 19.92H41.49ZM39.726 10.269C38.559 9.659 36.926 10.127 36.272 11.404C36.035 11.867 35.912 12.484 36.07 13.254C36.125 13.524 36.537 13.451 36.597 13.183C36.882 11.927 37.774 10.721 39.586 10.655C39.82 10.647 39.934 10.377 39.726 10.269Z" fill="#FC5957" fill-opacity="0.9"/>
<path d="M26.784 30.032C26.944 30.48 27.056 30.992 27.12 31.568C27.216 32.112 27.264 32.672 27.264 33.248C27.264 33.824 27.216 34.4 27.12 34.976C27.056 35.52 26.96 36 26.832 36.416C26.32 38.208 25.296 39.712 23.76 40.928C22.224 42.112 20.464 42.976 18.48 43.52C16.528 44.064 14.496 44.256 12.384 44.096C10.304 43.936 8.448 43.408 6.816 42.512C5.792 41.936 4.912 41.232 4.176 40.4C3.44 39.568 2.816 38.64 2.304 37.616C2.112 37.264 1.984 36.864 1.92 36.416C1.888 35.936 1.936 35.488 2.064 35.072C2.192 34.624 2.4 34.24 2.688 33.92C2.976 33.568 3.376 33.328 3.888 33.2C4.208 33.136 4.56 33.104 4.944 33.104C5.36 33.104 5.76 33.168 6.144 33.296C6.528 33.392 6.88 33.568 7.2 33.824C7.52 34.048 7.776 34.368 7.968 34.784C8.32 35.456 8.816 36.08 9.456 36.656C10.128 37.2 10.832 37.648 11.568 38C12.624 38.352 13.68 38.496 14.736 38.432C15.824 38.368 16.8 38.128 17.664 37.712C18.56 37.296 19.28 36.736 19.824 36.032C20.368 35.296 20.64 34.464 20.64 33.536C20.64 32.768 20.528 32.144 20.304 31.664C20.08 31.152 19.76 30.736 19.344 30.416C18.96 30.064 18.48 29.776 17.904 29.552C17.36 29.328 16.752 29.136 16.08 28.976C15.312 28.816 14.528 28.704 13.728 28.64C12.96 28.576 12.176 28.496 11.376 28.4C10.576 28.304 9.792 28.176 9.024 28.016C8.256 27.856 7.504 27.616 6.768 27.296C5.296 26.688 4.176 25.76 3.408 24.512C2.64 23.264 2.176 21.92 2.016 20.48C1.888 19.04 2.064 17.616 2.544 16.208C3.024 14.768 3.792 13.536 4.848 12.512C5.872 11.584 7.088 10.928 8.496 10.544C9.936 10.128 11.52 9.888 13.248 9.824C14.208 9.792 15.168 9.824 16.128 9.92C17.12 10.016 18.064 10.176 18.96 10.4C19.888 10.624 20.736 10.912 21.504 11.264C22.304 11.616 22.992 12.032 23.568 12.512C23.984 12.832 24.4 13.264 24.816 13.808C25.232 14.32 25.552 14.88 25.776 15.488C26 16.064 26.064 16.624 25.968 17.168C25.904 17.712 25.568 18.176 24.96 18.56C24.448 18.88 23.952 19.024 23.472 18.992C23.024 18.928 22.592 18.784 22.176 18.56C21.76 18.304 21.36 18.016 20.976 17.696C20.592 17.376 20.24 17.088 19.92 16.832C19.056 16.192 17.984 15.76 16.704 15.536C15.424 15.312 14.224 15.264 13.104 15.392C12.4 15.488 11.744 15.648 11.136 15.872C10.528 16.096 10 16.4 9.552 16.784C9.136 17.168 8.8 17.648 8.544 18.224C8.32 18.768 8.24 19.392 8.304 20.096C8.336 20.608 8.48 21.04 8.736 21.392C9.024 21.744 9.36 22.032 9.744 22.256C10.16 22.48 10.608 22.656 11.088 22.784C11.568 22.912 12.048 23.008 12.528 23.072C13.968 23.264 15.408 23.408 16.848 23.504C18.288 23.6 19.696 23.92 21.072 24.464C22.48 25.008 23.68 25.744 24.672 26.672C25.664 27.6 26.368 28.72 26.784 30.032ZM36.7391 23.792C37.6991 23.312 38.7071 22.976 39.7631 22.784C40.8191 22.56 41.8591 22.512 42.8831 22.64C43.9391 22.736 44.9471 23.008 45.9071 23.456C46.8671 23.872 47.7631 24.48 48.5951 25.28C49.4271 26.112 50.0671 27.024 50.5151 28.016C50.9631 29.008 51.2831 30.112 51.4751 31.328C51.6031 32.16 51.8111 32.928 52.0991 33.632C52.3871 34.336 52.6911 35.04 53.0111 35.744C53.3631 36.448 53.6831 37.152 53.9711 37.856C54.2911 38.56 54.5471 39.296 54.7391 40.064C54.8991 40.8 54.8351 41.52 54.5471 42.224C54.2911 42.896 53.7471 43.312 52.9151 43.472C52.4351 43.568 51.9711 43.536 51.5231 43.376C51.1071 43.184 50.7231 42.928 50.3711 42.608C50.0191 42.256 49.6991 41.888 49.4111 41.504C49.1551 41.088 48.9151 40.704 48.6911 40.352C47.9551 41.312 47.1551 42.064 46.2911 42.608C45.4271 43.12 44.3871 43.456 43.1711 43.616C42.1471 43.744 41.1711 43.776 40.2431 43.712C39.3151 43.648 38.3231 43.472 37.2671 43.184C35.8911 42.832 34.7551 42.224 33.8591 41.36C32.9951 40.464 32.3231 39.44 31.8431 38.288C31.3951 37.104 31.1551 35.84 31.1231 34.496C31.0911 33.152 31.2511 31.824 31.6031 30.512C32.0511 28.784 32.7231 27.376 33.6191 26.288C34.5151 25.2 35.5551 24.368 36.7391 23.792ZM37.9391 29.408C37.4911 29.856 37.1391 30.384 36.8831 30.992C36.6271 31.6 36.4671 32.24 36.4031 32.912C36.3711 33.584 36.4351 34.256 36.5951 34.928C36.7551 35.6 37.0111 36.192 37.3631 36.704C37.6831 37.152 38.2271 37.536 38.9951 37.856C39.7631 38.144 40.5631 38.32 41.3951 38.384C42.3551 38.448 43.1871 38.192 43.8911 37.616C44.6271 37.04 45.1711 36.32 45.5231 35.456C45.9071 34.56 46.0831 33.616 46.0511 32.624C46.0191 31.6 45.7471 30.672 45.2351 29.84C44.8511 29.232 44.3391 28.784 43.6991 28.496C43.0911 28.208 42.4351 28.064 41.7311 28.064C41.0271 28.032 40.3231 28.144 39.6191 28.4C38.9471 28.624 38.3871 28.96 37.9391 29.408ZM65.1165 40.16C65.0845 40.32 65.0525 40.48 65.0205 40.64C65.0205 40.768 65.0205 40.912 65.0205 41.072L64.7325 42.08C64.6685 42.208 64.6205 42.288 64.5885 42.32L64.4445 42.608C64.2845 42.96 63.9965 43.248 63.5805 43.472C62.8125 43.856 61.9965 43.952 61.1325 43.76C60.5885 43.696 60.1565 43.536 59.8365 43.28C59.5165 43.056 59.2925 42.784 59.1645 42.464C59.0365 42.144 58.9405 41.824 58.8765 41.504C58.7805 41.184 58.7325 40.896 58.7325 40.64V13.76C58.7325 13.536 58.7325 13.344 58.7325 13.184C58.7645 12.992 58.7965 12.816 58.8285 12.656C58.8605 12.432 58.8925 12.24 58.9245 12.08C58.9885 11.92 59.0525 11.744 59.1165 11.552C59.2125 11.232 59.3885 10.976 59.6445 10.784C60.0285 10.496 60.3965 10.336 60.7485 10.304C60.9725 10.24 61.1805 10.208 61.3725 10.208C61.5645 10.176 61.7885 10.16 62.0445 10.16C62.4925 10.16 63.0045 10.288 63.5805 10.544C64.0285 10.8 64.3485 11.152 64.5405 11.6C64.8605 12.24 65.0205 12.832 65.0205 13.376C65.0525 13.696 65.0685 14.176 65.0685 14.816C65.1005 15.456 65.1165 15.936 65.1165 16.256V16.448C65.1805 17.472 65.2125 18.464 65.2125 19.424C65.2125 20.352 65.1965 21.376 65.1645 22.496C65.1645 23.584 65.1485 24.64 65.1165 25.664C65.1165 26.656 65.1165 27.648 65.1165 28.64V38.72C65.1165 38.848 65.1165 38.976 65.1165 39.104C65.1485 39.2 65.1645 39.312 65.1645 39.44C65.1645 39.76 65.1485 40 65.1165 40.16ZM88.773 32.576C88.709 33.632 88.645 34.704 88.581 35.792C88.517 36.848 88.341 37.872 88.053 38.864C87.797 39.856 87.381 40.752 86.805 41.552C86.261 42.352 85.477 42.992 84.453 43.472C83.557 43.92 82.597 44.224 81.573 44.384C80.549 44.576 79.525 44.656 78.501 44.624C77.477 44.592 76.485 44.432 75.525 44.144C74.565 43.888 73.701 43.52 72.933 43.04C72.165 42.56 71.541 41.936 71.061 41.168C70.581 40.4 70.197 39.568 69.909 38.672C69.653 37.776 69.477 36.848 69.381 35.888C69.285 34.928 69.221 34.032 69.189 33.2C69.061 30.992 69.061 28.816 69.189 26.672C69.189 26.256 69.189 25.792 69.189 25.28C69.189 24.736 69.221 24.208 69.285 23.696C69.381 23.184 69.525 22.72 69.717 22.304C69.909 21.856 70.229 21.52 70.677 21.296C71.637 20.784 72.517 20.752 73.317 21.2C74.149 21.648 74.645 22.576 74.805 23.984C74.901 24.72 74.933 25.536 74.901 26.432C74.901 27.328 74.933 28.144 74.997 28.88C75.029 29.968 75.061 31.152 75.093 32.432C75.125 33.68 75.301 34.8 75.621 35.792C75.973 36.784 76.533 37.536 77.301 38.048C78.101 38.528 79.285 38.544 80.853 38.096C81.589 37.872 82.069 37.312 82.293 36.416C82.549 35.52 82.677 34.192 82.677 32.432C82.677 31.664 82.661 30.816 82.629 29.888C82.597 28.96 82.581 28.048 82.581 27.152C82.581 26.224 82.597 25.376 82.629 24.608C82.693 23.808 82.789 23.2 82.917 22.784C83.077 22.208 83.413 21.776 83.925 21.488C84.437 21.2 84.981 21.056 85.557 21.056C86.133 21.024 86.677 21.136 87.189 21.392C87.701 21.648 88.053 22.064 88.245 22.64C88.437 23.152 88.565 23.808 88.629 24.608C88.725 25.376 88.789 26.224 88.821 27.152C88.853 28.048 88.853 28.976 88.821 29.936C88.821 30.864 88.805 31.744 88.773 32.576ZM112.182 22.832C112.438 23.44 112.454 24.112 112.23 24.848C112.038 25.584 111.67 26.064 111.126 26.288C110.838 26.416 110.454 26.528 109.974 26.624C109.494 26.688 108.966 26.752 108.39 26.816C107.846 26.88 107.302 26.928 106.758 26.96C106.214 26.992 105.75 27.008 105.366 27.008C105.398 27.968 105.43 28.96 105.462 29.984C105.494 30.976 105.526 31.952 105.558 32.912C105.59 33.872 105.606 34.8 105.606 35.696C105.606 36.56 105.59 37.344 105.558 38.048C105.558 38.528 105.558 39.088 105.558 39.728C105.558 40.336 105.51 40.928 105.414 41.504C105.35 42.08 105.238 42.592 105.078 43.04C104.918 43.456 104.678 43.728 104.358 43.856C103.366 44.272 102.454 44.384 101.622 44.192C100.822 44.032 100.246 43.696 99.8936 43.184C99.6376 42.768 99.4456 42.288 99.3176 41.744C99.1896 41.168 99.0936 40.592 99.0296 40.016C98.9976 39.408 98.9816 38.832 98.9816 38.288C99.0136 37.712 99.0296 37.216 99.0296 36.8C99.0616 35.456 99.0776 33.936 99.0776 32.24C99.1096 30.512 99.1256 28.784 99.1256 27.056H98.4056C98.0216 27.056 97.5256 27.056 96.9176 27.056C96.3416 27.024 95.7496 26.976 95.1416 26.912C94.5656 26.816 94.0216 26.704 93.5096 26.576C92.9976 26.416 92.6296 26.192 92.4056 25.904C92.0536 25.488 91.8296 25.04 91.7336 24.56C91.6696 24.08 91.7016 23.632 91.8296 23.216C91.9896 22.768 92.2296 22.384 92.5496 22.064C92.8696 21.712 93.2376 21.488 93.6536 21.392C94.2296 21.232 95.0456 21.152 96.1016 21.152C97.1576 21.12 98.1496 21.12 99.0776 21.152C99.0456 20.832 99.0296 20.528 99.0296 20.24C99.0296 19.92 99.0136 19.616 98.9816 19.328C98.9496 18.944 98.9336 18.464 98.9336 17.888C98.9336 17.28 98.9656 16.688 99.0296 16.112C99.1256 15.504 99.2696 14.944 99.4616 14.432C99.6536 13.888 99.9256 13.472 100.278 13.184C100.758 12.8 101.238 12.592 101.718 12.56C102.23 12.496 102.694 12.56 103.11 12.752C103.558 12.944 103.926 13.232 104.214 13.616C104.534 13.968 104.758 14.368 104.886 14.816C104.982 15.2 105.062 15.664 105.126 16.208C105.19 16.72 105.222 17.264 105.222 17.84C105.254 18.416 105.27 18.992 105.27 19.568C105.27 20.144 105.27 20.672 105.27 21.152H105.75C106.23 21.152 106.79 21.136 107.43 21.104C108.07 21.072 108.694 21.088 109.302 21.152C109.942 21.216 110.518 21.376 111.03 21.632C111.542 21.856 111.926 22.256 112.182 22.832ZM125.705 35.552C125.097 35.168 124.409 34.864 123.641 34.64C122.905 34.416 122.137 34.208 121.337 34.016C120.569 33.824 119.817 33.616 119.081 33.392C118.345 33.136 117.673 32.784 117.065 32.336C115.753 31.344 114.985 30.128 114.761 28.688C114.569 27.216 114.889 25.744 115.721 24.272C116.169 23.504 116.761 22.88 117.497 22.4C118.233 21.888 119.033 21.504 119.897 21.248C120.793 20.96 121.705 20.8 122.633 20.768C123.561 20.736 124.441 20.784 125.273 20.912C125.817 21.008 126.393 21.152 127.001 21.344C127.609 21.504 128.169 21.728 128.681 22.016C129.225 22.304 129.705 22.672 130.121 23.12C130.569 23.536 130.889 24.064 131.081 24.704C131.209 25.12 131.225 25.52 131.129 25.904C131.065 26.288 130.905 26.608 130.649 26.864C130.425 27.12 130.121 27.312 129.737 27.44C129.385 27.568 129.001 27.6 128.585 27.536C128.105 27.44 127.657 27.296 127.241 27.104C126.825 26.912 126.409 26.704 125.993 26.48C125.577 26.256 125.145 26.064 124.697 25.904C124.281 25.744 123.833 25.664 123.353 25.664C122.617 25.632 122.009 25.76 121.529 26.048C121.049 26.336 120.713 26.688 120.521 27.104C120.361 27.52 120.377 27.968 120.569 28.448C120.793 28.928 121.241 29.344 121.913 29.696C122.521 30.016 123.193 30.272 123.929 30.464C124.665 30.656 125.385 30.848 126.089 31.04C126.825 31.232 127.529 31.456 128.201 31.712C128.905 31.968 129.529 32.32 130.073 32.768C131.129 33.632 131.769 34.64 131.993 35.792C132.249 36.944 132.185 38.08 131.801 39.2C131.417 40.32 130.745 41.312 129.785 42.176C128.857 43.04 127.753 43.616 126.473 43.904C125.545 44.096 124.537 44.192 123.449 44.192C122.393 44.192 121.337 44.08 120.281 43.856C119.257 43.632 118.265 43.28 117.305 42.8C116.377 42.32 115.593 41.712 114.953 40.976C114.505 40.464 114.265 39.888 114.233 39.248C114.233 38.576 114.361 38 114.617 37.52C114.905 37.008 115.305 36.656 115.817 36.464C116.329 36.272 116.905 36.384 117.545 36.8C118.057 37.152 118.664 37.504 119.368 37.856C120.073 38.176 120.777 38.432 121.481 38.624C122.185 38.816 122.857 38.912 123.497 38.912C124.169 38.912 124.745 38.768 125.225 38.48C125.929 38.032 126.297 37.52 126.329 36.944C126.361 36.336 126.153 35.872 125.705 35.552Z" fill="#FC6967"/>
</svg>
