<svg width="110" height="104" viewBox="0 0 110 104" fill="none" xmlns="http://www.w3.org/2000/svg">
<path d="M38.5937 23.5381H49.4189V73.0938C49.4189 73.7383 49.9462 74.2657 50.5907 74.2657H59.3798C60.0243 74.2657 60.5517 73.7383 60.5517 73.0938V23.5381H71.4062C72.3876 23.5381 72.9296 22.4102 72.329 21.6485L55.9228 0.877C55.8132 0.736935 55.6731 0.623659 55.5132 0.545756C55.3533 0.467854 55.1778 0.427368 54.9999 0.427368C54.8221 0.427368 54.6465 0.467854 54.4866 0.545756C54.3268 0.623659 54.1867 0.736935 54.0771 0.877L37.6708 21.6338C37.0702 22.4102 37.6122 23.5381 38.5937 23.5381Z" fill="white"/>
<path d="M108.613 68.6992H99.8242C99.1797 68.6992 98.6523 69.2266 98.6523 69.8711V92.4297H11.3477V69.8711C11.3477 69.2266 10.8203 68.6992 10.1758 68.6992H1.38672C0.742188 68.6992 0.214844 69.2266 0.214844 69.8711V98.875C0.214844 101.468 2.30957 103.562 4.90234 103.562H105.098C107.69 103.562 109.785 101.468 109.785 98.875V69.8711C109.785 69.2266 109.258 68.6992 108.613 68.6992Z" fill="white"/>
</svg>
