<svg width="256" height="256" viewBox="0 0 256 256" fill="none" xmlns="http://www.w3.org/2000/svg">
<path d="M245.76 0H10.24C4.576 0 0 4.576 0 10.24V245.76C0 251.424 4.576 256 10.24 256H245.76C251.424 256 256 251.424 256 245.76V10.24C256 4.576 251.424 0 245.76 0Z" fill="#292D34"/>
<path d="M174 134.312C174 135.378 173.128 136.25 172.062 136.25H135.25V173.062C135.25 174.128 134.378 175 133.312 175H121.688C120.622 175 119.75 174.128 119.75 173.062V136.25H82.9375C81.8719 136.25 81 135.378 81 134.312V122.688C81 121.622 81.8719 120.75 82.9375 120.75H119.75V83.9375C119.75 82.8719 120.622 82 121.688 82H133.312C134.378 82 135.25 82.8719 135.25 83.9375V120.75H172.062C173.128 120.75 174 121.622 174 122.688V134.312Z" fill="white"/>
</svg>
