<svg width="158" height="158" viewBox="0 0 158 158" fill="none" xmlns="http://www.w3.org/2000/svg">
<path d="M79.9609 70.9128C79.8467 70.7669 79.7008 70.6489 79.5342 70.5678C79.3677 70.4866 79.1848 70.4445 78.9996 70.4445C78.8143 70.4445 78.6315 70.4866 78.4649 70.5678C78.2983 70.6489 78.1525 70.7669 78.0383 70.9128L60.9484 92.5345C60.8075 92.7144 60.7201 92.9304 60.6962 93.1576C60.6722 93.3849 60.7127 93.6143 60.813 93.8196C60.9132 94.025 61.0693 94.1979 61.2632 94.3187C61.4572 94.4396 61.6812 94.5034 61.9097 94.5029H73.186V131.49C73.186 132.162 73.7353 132.711 74.4067 132.711H83.562C84.2333 132.711 84.7827 132.162 84.7827 131.49V94.5182H96.0894C97.1118 94.5182 97.6763 93.3432 97.0507 92.5498L79.9609 70.9128Z" fill="#414141"/>
<path d="M124.685 56.829C117.696 38.3964 99.8893 25.2891 79.0305 25.2891C58.1718 25.2891 40.3647 38.3811 33.3762 56.8137C20.2994 60.2469 10.6406 72.1641 10.6406 86.3242C10.6406 103.185 24.2972 116.842 41.1429 116.842H47.2617C47.9331 116.842 48.4824 116.292 48.4824 115.621V106.466C48.4824 105.794 47.9331 105.245 47.2617 105.245H41.1429C36.0007 105.245 31.1637 103.2 27.5626 99.4926C23.9768 95.7999 22.0695 90.8256 22.2373 85.6681C22.3746 81.6398 23.7479 77.8556 26.2351 74.6665C28.7833 71.4164 32.3539 69.0513 36.3212 67.9984L42.1042 66.4878L44.2252 60.9031C45.5375 57.4241 47.3685 54.174 49.6726 51.229C51.9473 48.3101 54.6417 45.7442 57.6682 43.6149C63.9396 39.2051 71.3248 36.8705 79.0305 36.8705C86.7362 36.8705 94.1215 39.2051 100.393 43.6149C103.429 45.7511 106.115 48.3146 108.388 51.229C110.693 54.174 112.524 57.4393 113.836 60.9031L115.942 66.4725L121.709 67.9984C129.98 70.2262 135.763 77.7488 135.763 86.3242C135.763 91.3749 133.794 96.1356 130.224 99.7062C128.473 101.467 126.39 102.864 124.095 103.815C121.801 104.765 119.341 105.252 116.857 105.245H110.738C110.067 105.245 109.518 105.794 109.518 106.466V115.621C109.518 116.292 110.067 116.842 110.738 116.842H116.857C133.703 116.842 147.359 103.185 147.359 86.3242C147.359 72.1793 137.731 60.2775 124.685 56.829Z" fill="#414141"/>
</svg>
