<svg width="157" height="157" viewBox="0 0 157 157" fill="none" xmlns="http://www.w3.org/2000/svg">
<path d="M79.0859 70.0378C78.9717 69.8919 78.8258 69.7739 78.6592 69.6928C78.4927 69.6116 78.3098 69.5695 78.1246 69.5695C77.9393 69.5695 77.7565 69.6116 77.5899 69.6928C77.4233 69.7739 77.2775 69.8919 77.1633 70.0378L60.0734 91.6595C59.9325 91.8394 59.8451 92.0554 59.8212 92.2826C59.7972 92.5099 59.8377 92.7393 59.938 92.9446C60.0382 93.1499 60.1943 93.3229 60.3882 93.4437C60.5822 93.5646 60.8062 93.6284 61.0347 93.6279H72.311V130.615C72.311 131.287 72.8603 131.836 73.5317 131.836H82.687C83.3583 131.836 83.9077 131.287 83.9077 130.615V93.6432H95.2144C96.2368 93.6432 96.8013 92.4682 96.1757 91.6748L79.0859 70.0378Z" fill="#FC6967"/>
<path d="M123.81 55.954C116.821 37.5214 99.0143 24.4141 78.1555 24.4141C57.2968 24.4141 39.4897 37.5061 32.5012 55.9387C19.4244 59.3719 9.76562 71.2891 9.76562 85.4492C9.76562 102.31 23.4222 115.967 40.2679 115.967H46.3867C47.0581 115.967 47.6074 115.417 47.6074 114.746V105.591C47.6074 104.919 47.0581 104.37 46.3867 104.37H40.2679C35.1257 104.37 30.2887 102.325 26.6876 98.6176C23.1018 94.9249 21.1945 89.9506 21.3623 84.7931C21.4996 80.7648 22.8729 76.9806 25.3601 73.7915C27.9083 70.5414 31.4789 68.1763 35.4462 67.1234L41.2292 65.6128L43.3502 60.0281C44.6625 56.5491 46.4935 53.299 48.7976 50.354C51.0723 47.4351 53.7667 44.8692 56.7932 42.7399C63.0646 38.3301 70.4498 35.9955 78.1555 35.9955C85.8612 35.9955 93.2465 38.3301 99.5178 42.7399C102.554 44.8761 105.24 47.4396 107.513 50.354C109.818 53.299 111.649 56.5643 112.961 60.0281L115.067 65.5975L120.834 67.1234C129.105 69.3512 134.888 76.8738 134.888 85.4492C134.888 90.4999 132.919 95.2606 129.349 98.8312C127.598 100.592 125.515 101.989 123.22 102.94C120.926 103.89 118.466 104.377 115.982 104.37H109.863C109.192 104.37 108.643 104.919 108.643 105.591V114.746C108.643 115.417 109.192 115.967 109.863 115.967H115.982C132.828 115.967 146.484 102.31 146.484 85.4492C146.484 71.3043 136.856 59.4025 123.81 55.954Z" fill="#FC6967"/>
</svg>
