<svg width="1280" height="1550" viewBox="0 0 1280 1550" fill="none" xmlns="http://www.w3.org/2000/svg">
<path d="M0 92H1280V1204H0V92Z" fill="url(#paint0_linear_197_92)"/>
<path fill-rule="evenodd" clip-rule="evenodd" d="M319.529 372.223C497.05 342.737 708.637 313.017 823.216 474.987C938.899 638.521 871.594 877.075 821.097 1081.25C775.494 1265.64 714.932 1471.17 560.919 1535.54C416.418 1595.94 281.53 1453.28 149.267 1362.06C37.242 1284.8 -85.601 1211.68 -121.379 1064.99C-159.196 909.939 -114.648 746.291 -32.4307 617.109C53.4665 482.145 177.48 395.817 319.529 372.223Z" fill="#FCE38A"/>
<path fill-rule="evenodd" clip-rule="evenodd" d="M854.529 25.9526C1032.05 5.6978 1243.64 -14.718 1358.22 96.5443C1473.9 208.88 1406.59 372.749 1356.1 513.004C1310.49 639.667 1249.93 780.85 1095.92 825.07C951.418 866.559 816.53 768.559 684.267 705.9C572.242 652.828 449.399 602.596 413.621 501.833C375.804 395.325 420.352 282.91 502.569 194.172C588.467 101.461 712.48 42.1601 854.529 25.9526Z" fill="#F38181"/>
<path fill-rule="evenodd" clip-rule="evenodd" d="M998.507 642.886C1163.52 620.176 1360.2 597.286 1466.71 722.034C1574.24 847.987 1511.68 1031.72 1464.74 1188.97C1422.35 1330.99 1366.05 1489.29 1222.89 1538.87C1088.57 1585.38 963.185 1475.51 840.24 1405.25C736.108 1345.75 621.919 1289.43 588.662 1176.45C553.508 1057.03 594.918 930.99 671.343 831.496C751.189 727.547 866.466 661.058 998.507 642.886Z" fill="#95E1D3"/>
<path fill-rule="evenodd" clip-rule="evenodd" d="M214.491 13.6322C370.126 -3.67643 555.627 -21.1227 656.079 73.956C757.501 169.952 698.493 309.986 654.222 429.84C614.241 538.079 561.145 658.726 426.12 696.514C299.435 731.969 181.177 648.223 65.2204 594.678C-32.9934 549.326 -140.691 506.4 -172.058 420.294C-205.213 329.278 -166.157 233.214 -94.0762 157.383C-18.7691 78.1576 89.9549 27.4822 214.491 13.6322Z" fill="#7ACCF9"/>
<defs>
<linearGradient id="paint0_linear_197_92" x1="1526" y1="0.000123446" x2="380.377" y2="1891.78" gradientUnits="userSpaceOnUse">
<stop stop-color="#F1F2F4" stop-opacity="0.9"/>
<stop offset="1" stop-color="#F1F2F4" stop-opacity="0"/>
</linearGradient>
</defs>
</svg>
