<svg width="40" height="40" viewBox="0 0 40 40" fill="none" xmlns="http://www.w3.org/2000/svg">
<path d="M40 20C40 31.0457 31.0457 40 20 40C8.9543 40 0 31.0457 0 20C0 8.9543 8.9543 0 20 0C31.0457 0 40 8.9543 40 20Z" fill="#7ACCF9"/>
<path d="M12.344 29V27.292L19.456 21.02C20.9867 19.676 22.0507 18.556 22.648 17.66C23.2453 16.764 23.544 15.8307 23.544 14.86C23.544 13.74 23.1613 12.8347 22.396 12.144C21.6307 11.4533 20.6973 11.108 19.596 11.108C18.532 11.108 17.5893 11.3787 16.768 11.92C15.9653 12.4613 15.1533 13.3107 14.332 14.468L12.708 13.292C13.66 11.8733 14.668 10.828 15.732 10.156C16.796 9.46533 18.14 9.12 19.764 9.12C21.5187 9.12 22.9653 9.652 24.104 10.716C25.2613 11.7613 25.84 13.096 25.84 14.72C25.84 16.064 25.476 17.2587 24.748 18.304C24.02 19.3493 22.732 20.6933 20.884 22.336L15.648 26.984H26.036V29H12.344Z" fill="white"/>
</svg>
