<svg width="40" height="40" viewBox="0 0 40 40" fill="none" xmlns="http://www.w3.org/2000/svg">
<path d="M40 20C40 31.0457 31.0457 40 20 40C8.9543 40 0 31.0457 0 20C0 8.9543 8.9543 0 20 0C31.0457 0 40 8.9543 40 20Z" fill="#FFDA64"/>
<path d="M19.708 30.336C16.628 30.336 14.192 29.1693 12.4 26.836L13.996 25.408C15.5827 27.3493 17.496 28.32 19.736 28.32C20.9493 28.32 21.9667 27.9653 22.788 27.256C23.6093 26.5467 24.02 25.6133 24.02 24.456C24.02 23.2613 23.516 22.3373 22.508 21.684C21.5 21.012 20.1747 20.676 18.532 20.676H17.272L16.824 19.36L23.012 12.388H13.436V10.4H25.952V12.024L19.792 18.856C21.6587 19.0053 23.1987 19.5467 24.412 20.48C25.644 21.3947 26.26 22.7107 26.26 24.428C26.26 26.1453 25.6253 27.564 24.356 28.684C23.1053 29.7853 21.556 30.336 19.708 30.336Z" fill="white"/>
</svg>
